<svg width="13" height="13" viewBox="0 0 13 13" fill="none" xmlns="http://www.w3.org/2000/svg">
<path fill-rule="evenodd" clip-rule="evenodd" d="M10 4H12V2H10V4ZM1 12H12V6H10.0269C10.0269 6 10.375 9.98499 6.5 9.98499C2.625 9.98499 2.99023 6 2.99023 6H1V12ZM9 6.5C9.00586 5.12598 7.88525 4.00195 6.5 4C5.125 3.99805 4.01221 5.10498 4 6.5C3.98828 7.86499 5.10498 8.98999 6.5 9C7.87012 9.01001 8.99414 7.89001 9 6.5ZM11.375 0C11.725 0.02 1.625 0 1.625 0C1.268 0.013 1.215 0.026 0.812 0C0.542 0.208 0.162 0.606 0 1.625C0.02 1.265 0 11.375 0 11.375C0.012 11.728 0.025 11.777 0 12.188C0.176 12.428 0.64 12.866 1.625 13C1.275 12.98 11.375 13 11.375 13C11.725 12.99 11.769 12.977 12.188 13C12.408 12.84 12.863 12.367 13 11.375C12.98 11.735 13 1.625 13 1.625C12.987 1.268 12.974 1.215 13 0.812C12.79 0.536 12.39 0.154 11.375 0Z" fill="#5A5A5A"/>
</svg>
