<svg width="14" height="14" viewBox="0 0 14 14" fill="none" xmlns="http://www.w3.org/2000/svg">
<path fill-rule="evenodd" clip-rule="evenodd" d="M13.8691 6.37136C13.9096 3.12722 11.0248 0.120144 7.67424 0.00918185C7.4218 0.0449485 6.89836 -0.161717 6.86614 0.393825C6.84416 0.768337 7.28459 0.706692 7.57365 0.750271C11.0614 1.27627 12.6703 2.90225 13.1147 6.34683C13.1235 6.41604 13.1249 6.49282 13.1264 6.57071C13.1308 6.85086 13.1357 7.14553 13.498 7.15237C13.9819 7.1614 13.8652 6.68985 13.8691 6.37136ZM11.0361 13.966C11.0927 13.9784 11.1425 13.9894 11.1821 14C12.2685 14.0106 13.5409 12.9846 13.9086 11.9663C14.2197 11.1055 13.6796 10.7007 13.143 10.2984C13.0688 10.2429 12.995 10.1875 12.9233 10.131C12.5619 9.8461 12.1806 9.5856 11.8002 9.32547L11.5644 9.16385C10.6508 8.53469 9.81487 8.48599 9.13322 9.49771C8.75041 10.0661 8.21477 10.0908 7.65422 9.84146C6.1093 9.15469 4.91692 8.09683 4.21819 6.55752C3.9091 5.87661 3.91301 5.2659 4.63664 4.78421C5.01897 4.52945 5.40471 4.22805 5.37395 3.67166C5.33342 2.94583 3.53655 0.520412 2.82658 0.264431C2.53264 0.158596 2.24016 0.165432 1.94133 0.263821C0.277268 0.812405 -0.412185 2.15445 0.247971 3.74343C2.21721 8.48391 5.68352 11.7841 10.455 13.7982C10.6532 13.8819 10.8676 13.929 11.0287 13.9643L11.0361 13.966ZM12.1454 5.98758C12.1474 6.04678 12.1498 6.10769 12.1459 6.16604C12.1357 6.32364 12.0815 6.46206 11.8652 6.49441C11.4404 6.55777 11.4223 6.26492 11.4057 5.98892C11.4013 5.92056 11.3969 5.85318 11.3866 5.79251C11.0322 3.69729 10.2822 2.92862 8.12785 2.45645C8.06779 2.44326 8.0009 2.43435 7.93303 2.42532C7.8427 2.41311 7.74992 2.40066 7.6674 2.37747C7.48576 2.32644 7.35295 2.22329 7.39885 1.95669C7.46526 1.56912 7.79436 1.62234 8.09709 1.67129C8.15129 1.68008 8.20451 1.68863 8.25529 1.69461C10.4076 1.94802 12.1659 3.77908 12.1484 5.79043C12.1405 5.84854 12.143 5.91677 12.1454 5.98758ZM10.1723 5.99112C10.4931 5.95376 10.5219 5.67422 10.5116 5.40884C10.5278 4.43814 9.40862 3.31631 8.45354 3.33963C8.22942 3.345 8.01018 3.36856 7.92766 3.60342C7.80412 3.95413 8.06389 4.0375 8.32854 4.07937C9.21281 4.21841 9.67766 4.72915 9.76555 5.59329C9.78996 5.82791 9.94133 6.01797 10.1723 5.99112Z" fill="#5A5A5A"/>
</svg>
