<svg width="125" height="42" viewBox="0 0 125 42" fill="none" xmlns="http://www.w3.org/2000/svg">
<path fill-rule="evenodd" clip-rule="evenodd" d="M0 5C0 2.23858 2.23858 0 5 0H120C122.761 0 125 2.23858 125 5V37C125 39.7614 122.761 42 120 42H5C2.23858 42 0 39.7614 0 37V5Z" fill="#1E292D"/>
<path fill-rule="evenodd" clip-rule="evenodd" d="M20.3081 0V9.26733H9.23096V1.85547L20.3081 0ZM8.3042 1.85352L0 2.89429L0.0078125 9.26733L8.30762 9.22388L8.3042 1.85352ZM8.30762 17.6079L8.30127 10.2437L0 10.1941L0.000488281 16.5598L8.30762 17.6079ZM9.23096 17.6194L20.3057 19.4614L20.3081 10.1941H9.23096V17.6194Z" transform="translate(11 11)" fill="white"/>
<path d="M7.40625 9.53906L8.55469 3.46875H10.3066L8.41406 12H6.64453L5.25586 6.29297L3.86719 12H2.09766L0.205078 3.46875H1.95703L3.11133 9.52734L4.51758 3.46875H6.00586L7.40625 9.53906ZM12.9375 12H11.2383V5.66016H12.9375V12ZM11.1387 4.01953C11.1387 3.76562 11.2227 3.55664 11.3906 3.39258C11.5625 3.22852 11.7949 3.14648 12.0879 3.14648C12.377 3.14648 12.6074 3.22852 12.7793 3.39258C12.9512 3.55664 13.0371 3.76562 13.0371 4.01953C13.0371 4.27734 12.9492 4.48828 12.7734 4.65234C12.6016 4.81641 12.373 4.89844 12.0879 4.89844C11.8027 4.89844 11.5723 4.81641 11.3965 4.65234C11.2246 4.48828 11.1387 4.27734 11.1387 4.01953ZM15.8965 5.66016L15.9492 6.39258C16.4023 5.82617 17.0098 5.54297 17.7715 5.54297C18.4434 5.54297 18.9434 5.74023 19.2715 6.13477C19.5996 6.5293 19.7676 7.11914 19.7754 7.9043V12H18.082V7.94531C18.082 7.58594 18.0039 7.32617 17.8477 7.16602C17.6914 7.00195 17.4316 6.91992 17.0684 6.91992C16.5918 6.91992 16.2344 7.12305 15.9961 7.5293V12H14.3027V5.66016H15.8965ZM20.8008 8.7832C20.8008 7.79492 21.0215 7.00781 21.4629 6.42188C21.9082 5.83594 22.5156 5.54297 23.2852 5.54297C23.9023 5.54297 24.4121 5.77344 24.8145 6.23438V3H26.5137V12H24.9844L24.9023 11.3262C24.4805 11.8535 23.9375 12.1172 23.2734 12.1172C22.5273 12.1172 21.9277 11.8242 21.4746 11.2383C21.0254 10.6484 20.8008 9.83008 20.8008 8.7832ZM22.4941 8.90625C22.4941 9.5 22.5977 9.95508 22.8047 10.2715C23.0117 10.5879 23.3125 10.7461 23.707 10.7461C24.2305 10.7461 24.5996 10.5254 24.8145 10.084V7.58203C24.6035 7.14063 24.2383 6.91992 23.7188 6.91992C22.9023 6.91992 22.4941 7.58203 22.4941 8.90625ZM27.5625 8.77148C27.5625 8.14258 27.6836 7.58203 27.9258 7.08984C28.168 6.59766 28.5156 6.2168 28.9688 5.94727C29.4258 5.67773 29.9551 5.54297 30.5566 5.54297C31.4121 5.54297 32.1094 5.80469 32.6484 6.32812C33.1914 6.85156 33.4941 7.5625 33.5566 8.46094L33.5684 8.89453C33.5684 9.86719 33.2969 10.6484 32.7539 11.2383C32.2109 11.8242 31.4824 12.1172 30.5684 12.1172C29.6543 12.1172 28.9238 11.8242 28.377 11.2383C27.834 10.6523 27.5625 9.85547 27.5625 8.84766V8.77148ZM29.2559 8.89453C29.2559 9.49609 29.3691 9.95703 29.5957 10.2773C29.8223 10.5938 30.1465 10.752 30.5684 10.752C30.9785 10.752 31.2988 10.5957 31.5293 10.2832C31.7598 9.9668 31.875 9.46289 31.875 8.77148C31.875 8.18164 31.7598 7.72461 31.5293 7.40039C31.2988 7.07617 30.9746 6.91406 30.5566 6.91406C30.1426 6.91406 29.8223 7.07617 29.5957 7.40039C29.3691 7.7207 29.2559 8.21875 29.2559 8.89453ZM40.125 9.69727L40.957 5.66016H42.5918L40.9746 12H39.5566L38.3555 8.00977L37.1543 12H35.7422L34.125 5.66016H35.7598L36.5859 9.69141L37.7461 5.66016H38.9707L40.125 9.69727ZM46.8691 10.248C46.8691 10.041 46.7656 9.87891 46.5586 9.76172C46.3555 9.64063 46.0273 9.5332 45.5742 9.43945C44.0664 9.12305 43.3125 8.48242 43.3125 7.51758C43.3125 6.95508 43.5449 6.48633 44.0098 6.11133C44.4785 5.73242 45.0898 5.54297 45.8438 5.54297C46.6484 5.54297 47.291 5.73242 47.7715 6.11133C48.2559 6.49023 48.498 6.98242 48.498 7.58789H46.8047C46.8047 7.3457 46.7266 7.14648 46.5703 6.99023C46.4141 6.83008 46.1699 6.75 45.8379 6.75C45.5527 6.75 45.332 6.81445 45.1758 6.94336C45.0195 7.07227 44.9414 7.23633 44.9414 7.43555C44.9414 7.62305 45.0293 7.77539 45.2051 7.89258C45.3848 8.00586 45.6855 8.10547 46.1074 8.19141C46.5293 8.27344 46.8848 8.36719 47.1738 8.47266C48.0684 8.80078 48.5156 9.36914 48.5156 10.1777C48.5156 10.7559 48.2676 11.2246 47.7715 11.584C47.2754 11.9395 46.6348 12.1172 45.8496 12.1172C45.3184 12.1172 44.8457 12.0234 44.4316 11.8359C44.0215 11.6445 43.6992 11.3848 43.4648 11.0566C43.2305 10.7246 43.1133 10.3672 43.1133 9.98438H44.7188C44.7344 10.2852 44.8457 10.5156 45.0527 10.6758C45.2598 10.8359 45.5371 10.916 45.8848 10.916C46.209 10.916 46.4531 10.8555 46.6172 10.7344C46.7852 10.6094 46.8691 10.4473 46.8691 10.248ZM2.51953 23.9941V27H0.761719V18.4688H4.08984C4.73047 18.4688 5.29297 18.5859 5.77734 18.8203C6.26563 19.0547 6.64063 19.3887 6.90234 19.8223C7.16406 20.252 7.29492 20.7422 7.29492 21.293C7.29492 22.1289 7.00781 22.7891 6.43359 23.2734C5.86328 23.7539 5.07227 23.9941 4.06055 23.9941H2.51953ZM2.51953 22.5703H4.08984C4.55469 22.5703 4.9082 22.4609 5.15039 22.2422C5.39648 22.0234 5.51953 21.7109 5.51953 21.3047C5.51953 20.8867 5.39648 20.5488 5.15039 20.291C4.9043 20.0332 4.56445 19.9004 4.13086 19.8926H2.51953V22.5703ZM10.0488 21.3516C10.498 20.8125 11.0625 20.543 11.7422 20.543C13.1172 20.543 13.8145 21.3418 13.834 22.9395V27H12.1406V22.9863C12.1406 22.623 12.0625 22.3555 11.9062 22.1836C11.75 22.0078 11.4902 21.9199 11.127 21.9199C10.6309 21.9199 10.2715 22.1113 10.0488 22.4941V27H8.35547V18H10.0488V21.3516ZM14.8477 23.7715C14.8477 23.1426 14.9687 22.582 15.2109 22.0898C15.4531 21.5977 15.8008 21.2168 16.2539 20.9473C16.7109 20.6777 17.2402 20.543 17.8418 20.543C18.6973 20.543 19.3945 20.8047 19.9336 21.3281C20.4766 21.8516 20.7793 22.5625 20.8418 23.4609L20.8535 23.8945C20.8535 24.8672 20.582 25.6484 20.0391 26.2383C19.4961 26.8242 18.7676 27.1172 17.8535 27.1172C16.9395 27.1172 16.209 26.8242 15.6621 26.2383C15.1191 25.6523 14.8477 24.8555 14.8477 23.8477V23.7715ZM16.541 23.8945C16.541 24.4961 16.6543 24.957 16.8809 25.2773C17.1074 25.5938 17.4316 25.752 17.8535 25.752C18.2637 25.752 18.584 25.5957 18.8145 25.2832C19.0449 24.9668 19.1602 24.4629 19.1602 23.7715C19.1602 23.1816 19.0449 22.7246 18.8145 22.4004C18.584 22.0762 18.2598 21.9141 17.8418 21.9141C17.4277 21.9141 17.1074 22.0762 16.8809 22.4004C16.6543 22.7207 16.541 23.2188 16.541 23.8945ZM23.4551 20.6602L23.5078 21.3926C23.9609 20.8262 24.5684 20.543 25.3301 20.543C26.002 20.543 26.502 20.7402 26.8301 21.1348C27.1582 21.5293 27.3262 22.1191 27.334 22.9043V27H25.6406V22.9453C25.6406 22.5859 25.5625 22.3262 25.4062 22.166C25.25 22.002 24.9902 21.9199 24.627 21.9199C24.1504 21.9199 23.793 22.123 23.5547 22.5293V27H21.8613V20.6602H23.4551ZM31.541 27.1172C30.6113 27.1172 29.8535 26.832 29.2676 26.2617C28.6855 25.6914 28.3945 24.9316 28.3945 23.9824V23.8184C28.3945 23.1816 28.5176 22.6133 28.7637 22.1133C29.0098 21.6094 29.3574 21.2227 29.8066 20.9531C30.2598 20.6797 30.7754 20.543 31.3535 20.543C32.2207 20.543 32.9023 20.8164 33.3984 21.3633C33.8984 21.9102 34.1484 22.6855 34.1484 23.6895V24.3809H30.1113C30.166 24.7949 30.3301 25.127 30.6035 25.377C30.8809 25.627 31.2305 25.752 31.6523 25.752C32.3047 25.752 32.8145 25.5156 33.1816 25.043L34.0137 25.9746C33.7598 26.334 33.416 26.6152 32.9824 26.8184C32.5488 27.0176 32.0684 27.1172 31.541 27.1172ZM31.3477 21.9141C31.0117 21.9141 30.7383 22.0273 30.5273 22.2539C30.3203 22.4805 30.1875 22.8047 30.1289 23.2266H32.4844V23.0918C32.4766 22.7168 32.375 22.4277 32.1797 22.2246C31.9844 22.0176 31.707 21.9141 31.3477 21.9141Z" transform="translate(43 6)" fill="white"/>
</svg>
