<svg width="16" height="10" viewBox="0 0 16 10" fill="none" xmlns="http://www.w3.org/2000/svg">
<path fill-rule="evenodd" clip-rule="evenodd" d="M4.07411 1.08699C4.13488 1.08699 8.58953 2.62897 8.58953 2.62897L8.49038 2.68311C10.573 1.64664 12.7062 0.608857 13.4977 0.302389C13.528 0.289852 14.2422 0.000107896 14.8988 0C15.5227 0.000323688 15.8002 0.266762 15.9281 0.49958C16.2909 1.25807 15.2216 2.12018 14.1 2.67383L11.7016 3.89105L6.92539 6.31508L3.64648 7.97832C3.57462 8.01488 3.48731 8.00491 3.42607 7.95333L0.068366 5.13149C0.0400756 5.10803 0.0199423 5.07754 0.00919583 5.04401C0.000995734 5.01854 -0.00191746 4.99146 0.00125468 4.96425C0.00902319 4.90089 0.048211 4.84548 0.106 4.81626L0.370043 4.67772C0.427832 4.6485 0.497188 4.6488 0.554977 4.67897L3.61655 5.14206C3.61655 5.14206 4.62341 4.62699 6.00463 3.9297C5.89293 3.82905 5.70431 3.65286 5.69831 3.65722C5.69831 3.65722 3.48027 1.60767 3.26271 1.41083C3.33882 1.38819 3.50056 1.31929 3.66007 1.25092C3.85197 1.16869 4.04094 1.08697 4.07411 1.08699Z" transform="translate(4.17188 -2.48541) rotate(45)" fill="#A0B0B9"/>
</svg>
