<svg width="16" height="8" viewBox="0 0 16 8" fill="none" xmlns="http://www.w3.org/2000/svg">
<path fill-rule="evenodd" clip-rule="evenodd" d="M14.8984 0C15.5229 0 15.8002 0.266449 15.9277 0.499512C16.2905 1.258 15.2216 2.11993 14.1 2.67355L11.7011 3.89105L6.92522 6.31509L3.64641 7.97821C3.57464 8.01468 3.48723 8.0047 3.42571 7.95328L0.0682887 5.13138C0.0189723 5.08978 -0.00641833 5.02716 0.00139417 4.96402C0.00871839 4.90088 0.0477809 4.84546 0.105886 4.81607L0.370047 4.67764C0.427664 4.64816 0.497 4.64862 0.555105 4.67883L3.61663 5.14188C3.61663 5.14188 4.62346 4.62689 6.00432 3.92978C5.97112 3.89984 5.93059 3.86313 5.89055 3.82651C5.79632 3.7402 5.70208 3.65421 5.69817 3.65732C5.69817 3.65732 3.47991 1.60776 3.26262 1.41083C3.43011 1.36139 4.01311 1.08701 4.07415 1.08701C4.1347 1.08701 8.58977 2.62885 8.58977 2.62885L8.49456 2.68094C10.5756 1.64523 12.7065 0.608551 13.4975 0.302155C13.5278 0.289795 14.2421 0 14.8984 0Z" fill="#A0B0B9"/>
</svg>
