<svg width="22" height="22" viewBox="0 0 22 22" fill="none" xmlns="http://www.w3.org/2000/svg">
<g id="Group">
<g id="segmentPinIcon" transform="translate(1 1)">
<path fill-rule="evenodd" clip-rule="evenodd" d="M0 10C0 4.47715 4.47715 0 10 0C15.5228 0 20 4.47715 20 10C20 15.5228 15.5228 20 10 20C4.47715 20 0 15.5228 0 10Z" fill="black" fill-opacity="0.01"/>
<path d="M10 20V20C15.5228 20 20 15.5228 20 10V10C20 4.47715 15.5228 0 10 0V0C4.47715 0 0 4.47715 0 10V10C0 15.5228 4.47715 20 10 20Z" stroke="#A0B0B9"/>
</g>
<g id="svg">
<g id="ic_pin-blue">
<path id="Shape" fill-rule="evenodd" clip-rule="evenodd" d="M0.690881 9.76989C0.519972 9.92589 0.330881 9.92889 0.189972 9.77689C0.0490633 9.62289 0.0536087 9.40689 0.197245 9.21789C0.586336 8.71289 1.68906 7.36289 2.31452 6.59989L0.0790633 4.14189C-0.0854822 3.95989 0.0499724 3.78689 0.0999724 3.73189C0.528154 3.26189 1.47543 3.06589 2.35088 3.46989L2.48361 3.61589C3.40634 2.85289 4.68724 1.71089 5.46452 1.08589L5.3127 0.918894C5.22721 0.82509 5.17916 0.697721 5.17916 0.564894C5.17916 0.432067 5.22721 0.304698 5.3127 0.210894L5.3727 0.146894C5.45798 0.0528521 5.57377 0 5.69452 0C5.81527 0 5.93106 0.0528521 6.01634 0.146894L8.95906 3.38289C9.04456 3.4767 9.0926 3.60407 9.0926 3.73689C9.0926 3.86972 9.04456 3.99709 8.95906 4.09089L8.89997 4.15589C8.8147 4.24994 8.69891 4.30279 8.57815 4.30279C8.4574 4.30279 8.34161 4.24994 8.25634 4.15589L8.14725 4.03589C7.57088 4.88989 6.52179 6.27689 5.81543 7.27989L5.93724 7.41389C6.28997 8.34889 6.10543 9.38789 5.71179 9.87389C5.6527 9.93889 5.50179 10.1049 5.31815 9.90389L3.08452 7.44589C2.34634 8.16589 1.04088 9.44689 0.689972 9.76789L0.690881 9.76989Z" transform="translate(6.5 5.5)" fill="#A0B0B9"/>
</g>
</g>
</g>
</svg>
