<svg width="18" height="32" viewBox="0 0 18 32" fill="none" xmlns="http://www.w3.org/2000/svg">
<path d="M17.6916 15.2624L3.27839 0.320858C3.07213 0.107252 2.83478 0 2.56688 0C2.29887 0 2.06163 0.107252 1.85548 0.320858L0.309282 1.92414C0.102805 2.13786 0 2.38336 0 2.66165C0 2.93994 0.102805 3.18545 0.309282 3.39916L12.4643 16.0003L0.309282 28.6017C0.102805 28.8155 0 29.0614 0 29.3389C0 29.6171 0.102805 29.863 0.309282 30.0768L1.85558 31.6795C2.06174 31.8934 2.29898 32 2.56699 32C2.83489 32 3.07213 31.8932 3.27839 31.6795L17.6908 16.7379C17.8969 16.5242 18 16.2782 18 16.0003C18 15.7225 17.8976 15.4765 17.6916 15.2624Z" transform="translate(18 32) rotate(-180)" fill="#5B5B5C" fill-opacity="0.2"/>
</svg>
