<svg width="38" height="38" viewBox="0 0 38 38" fill="none" xmlns="http://www.w3.org/2000/svg">
<path fill-rule="evenodd" clip-rule="evenodd" d="M0 18C0 8.05888 8.05888 0 18 0C27.9411 0 36 8.05888 36 18C36 27.9411 27.9411 36 18 36C8.05888 36 0 27.9411 0 18Z" transform="translate(1 1)" fill="#9B9B9B" stroke="#979797"/>
<path fill-rule="evenodd" clip-rule="evenodd" d="M10.8914 3.40914H7.78C7.41257 3.40914 7.00114 3.89314 7.00114 4.54057V6.78629H10.8914V9.98914H7.00114V19.6063H3.32914V9.98857H0V6.78686H3.32914V4.90286C3.32914 2.2 5.20571 0 7.78057 0H10.8914V3.408" transform="translate(13.2858 9.28564)" fill="white"/>
</svg>
