<svg width="70" height="10" viewBox="0 0 70 10" fill="none" xmlns="http://www.w3.org/2000/svg">
<path d="M5 8.2918L1.90983 10L2.5 6.38197L0 3.81966L3.45492 3.2918L5 0L6.54508 3.2918L10 3.81966L7.5 6.38197L8.09017 10L5 8.2918Z" transform="translate(30)" fill="white"/>
<path d="M5 8.2918L1.90983 10L2.5 6.38197L0 3.81966L3.45492 3.2918L5 0L6.54508 3.2918L10 3.81966L7.5 6.38197L8.09017 10L5 8.2918Z" transform="translate(15)" fill="white"/>
<path d="M5 8.2918L1.90983 10L2.5 6.38197L0 3.81966L3.45492 3.2918L5 0L6.54508 3.2918L10 3.81966L7.5 6.38197L8.09017 10L5 8.2918Z" fill="white"/>
<path d="M5 8.2918L1.90983 10L2.5 6.38197L0 3.81966L3.45492 3.2918L5 0L6.54508 3.2918L10 3.81966L7.5 6.38197L8.09017 10L5 8.2918Z" transform="translate(45)" fill="white"/>
<path d="M5 8.2918L1.90983 10L2.5 6.38197L0 3.81966L3.45492 3.2918L5 0L6.54508 3.2918L10 3.81966L7.5 6.38197L8.09017 10L5 8.2918Z" transform="translate(60)" fill="#05739F"/>
<mask id="mask0" mask-type="alpha" maskUnits="userSpaceOnUse" x="60" y="0" width="10" height="10">
<path fill-rule="evenodd" clip-rule="evenodd" d="M5 8.2918L1.90983 10L2.5 6.38197L0 3.81966L3.45492 3.2918L5 0L6.54508 3.2918L10 3.81966L7.5 6.38197L8.09017 10L5 8.2918Z" transform="translate(60)" fill="white"/>
</mask>
<g mask="url(#mask0)">
<path d="M0 0H6V10H0V0Z" transform="translate(60)" fill="white"/>
</g>
</svg>
