<svg width="38" height="38" viewBox="0 0 38 38" fill="none" xmlns="http://www.w3.org/2000/svg">
<path fill-rule="evenodd" clip-rule="evenodd" d="M0 18C0 8.05888 8.05888 0 18 0C27.9411 0 36 8.05888 36 18C36 27.9411 27.9411 36 18 36C8.05888 36 0 27.9411 0 18Z" transform="translate(1 1)" fill="#9B9B9B" stroke="#979797"/>
<path fill-rule="evenodd" clip-rule="evenodd" d="M10.623 4.24145C5.88704 -0.521551 0.0140381 0.0184489 0.0140381 0.0184489L0.0250381 2.68145C0.0250381 2.68145 4.94704 2.62445 8.57404 6.27045C12.2 9.91645 12.031 14.5264 12.031 14.5264L14.922 14.5204C14.921 14.5194 15.358 9.00345 10.623 4.24145ZM0.015 5.17737C0.017 6.27637 0.01 6.89837 0 7.82337C1.581 7.89137 3.663 7.93836 5.191 9.65137C6.719 11.3644 6.76 12.6514 7.108 14.5184C8.416 14.5184 8.741 14.5104 9.818 14.4904C9.671 12.5084 8.835 9.70137 7.15 7.88037C5.464 6.05937 2.066 5.16537 0.015 5.17737ZM2.03401 10.4844C0.91601 10.4844 0.0100098 11.3904 0.0100098 12.5084C0.0100098 13.6264 0.91601 14.5324 2.03401 14.5324C3.15201 14.5324 4.05801 13.6264 4.05801 12.5084C4.05801 11.3904 3.15201 10.4844 2.03401 10.4844Z" transform="translate(12.184 11.0366)" fill="white"/>
</svg>
