<svg width="38" height="38" viewBox="0 0 38 38" fill="none" xmlns="http://www.w3.org/2000/svg">
<path fill-rule="evenodd" clip-rule="evenodd" d="M0 18C0 8.05888 8.05888 0 18 0C27.9411 0 36 8.05888 36 18C36 27.9411 27.9411 36 18 36C8.05888 36 0 27.9411 0 18Z" transform="translate(1 1)" fill="#9B9B9B" stroke="#979797"/>
<path fill-rule="evenodd" clip-rule="evenodd" d="M19.2114 1.84757C18.5032 2.16108 17.7443 2.37351 16.9465 2.46919C17.7611 1.98108 18.3859 1.20865 18.68 0.288108C17.9178 0.74 17.0746 1.06811 16.1773 1.24486C15.4584 0.478378 14.4341 0 13.3005 0C11.1238 0 9.36 1.76486 9.36 3.94054C9.36 4.25027 9.39405 4.55135 9.46108 4.83946C6.18541 4.67459 3.28162 3.10595 1.33784 0.721622C0.998378 1.30378 0.803784 1.98108 0.803784 2.7027C0.803784 4.07027 1.49946 5.27568 2.5573 5.98378C1.91135 5.96216 1.30324 5.78595 0.771892 5.49081V5.53946C0.771892 7.44973 2.13027 9.04216 3.93297 9.40432C3.60324 9.49459 3.25459 9.5427 2.89514 9.5427C2.64108 9.5427 2.39459 9.51838 2.15351 9.47243C2.65514 11.0378 4.11027 12.1778 5.83459 12.2092C4.48595 13.2659 2.78703 13.8957 0.940541 13.8957C0.621622 13.8957 0.308108 13.8773 0 13.8405C1.74378 14.9595 3.81514 15.6119 6.04162 15.6119C13.2903 15.6119 17.2551 9.60649 17.2551 4.3973C17.2551 4.22703 17.2514 4.05676 17.2443 3.88757C18.0135 3.33243 18.6822 2.63784 19.2103 1.84757" transform="translate(9.26978 11.2715)" fill="white"/>
</svg>
