<svg width="17" height="23" viewBox="0 0 17 23" fill="none" xmlns="http://www.w3.org/2000/svg">
<g id="Group">
<g id="backgroundImage">
<g id="Group_2">
<path id="Shape" fill-rule="evenodd" clip-rule="evenodd" d="M5.98975 7.62771e-06C5.4248 7.62771e-06 4.98486 0.448006 4.98486 1.00001C4.98486 1.26612 5.09082 1.52119 5.2793 1.70887C5.46826 1.89655 5.72363 2.00135 5.98975 2.00001L5.98682 5.00001H1.96484C0.862793 5.00001 0 5.89301 0 6.995V19.005C0 20.107 0.861816 21 1.96484 21H3.98486V22C3.98486 22.557 4.43213 23 4.98486 23C5.54199 23 5.98682 22.553 5.98682 22V21H10.9951V22C10.9946 22.2658 11.1001 22.5207 11.2881 22.7084C11.4761 22.8961 11.7314 23.001 11.9971 23C12.5542 23 12.9971 22.553 12.9971 22V21H15.0869C16.188 21 17 20.107 17 19.005V6.995C17 5.89301 16.1899 5.00001 15.0869 5.00001H10.9951L10.9917 2.00001C11.5581 2.00001 11.9961 1.55201 11.9961 1.00001C11.9961 0.819954 11.9473 0.644905 11.8579 0.492439C11.8149 0.419746 11.7627 0.352119 11.7017 0.291512C11.5132 0.103828 11.2578 -0.00102997 10.9917 7.62771e-06H5.98975ZM9.99316 2.00001H6.98682V5.00001H9.99316V2.00001ZM11.9951 20H4.98682V21L4.98486 22V20H1.96484C1.4248 20 1 19.565 1 19.005V6.995C1 6.43501 1.4248 6.00001 1.96484 6.00001H15.0869C15.6079 6.00001 16 6.41499 16 6.995V19.005C16 19.583 15.6079 20 15.0879 20H11.9951Z" fill="#F34C3D"/>
<path id="Shape_2" d="M3.44025 4.62019L1.60225 6.40219C1.23525 6.75719 0.64225 6.75719 0.27525 6.40219C-0.09175 6.04719 -0.09175 5.47219 0.27525 5.11619L2.11325 3.33419L0.27525 1.55219C0.0995519 1.38445 0.000149014 1.15211 0.000149014 0.909193C0.000149014 0.666276 0.0995519 0.43394 0.27525 0.266193C0.646386 -0.0887311 1.23111 -0.0887311 1.60225 0.266193L3.44025 2.04819L5.27825 0.266193C5.64939 -0.0887311 6.23411 -0.0887311 6.60525 0.266193C6.78069 0.434084 6.8799 0.666367 6.8799 0.909193C6.8799 1.15202 6.78069 1.3843 6.60525 1.55219L4.76725 3.33419L6.60525 5.11619C6.78069 5.28408 6.8799 5.51637 6.8799 5.75919C6.8799 6.00202 6.78069 6.2343 6.60525 6.40219C6.23411 6.75712 5.64939 6.75712 5.27825 6.40219L3.44025 4.62019Z" transform="translate(5 10)" fill="#FF4C3E"/>
</g>
</g>
</g>
</svg>
