<svg width="22" height="22" viewBox="0 0 22 22" fill="none" xmlns="http://www.w3.org/2000/svg">
<path fill-rule="evenodd" clip-rule="evenodd" d="M0 10C0 4.47715 4.47715 0 10 0C15.5228 0 20 4.47715 20 10C20 15.5228 15.5228 20 10 20C4.47715 20 0 15.5228 0 10Z" transform="translate(1 1)" fill="black" fill-opacity="0.01"/>
<path d="M10 20V20C15.5228 20 20 15.5228 20 10V10C20 4.47715 15.5228 0 10 0V0C4.47715 0 0 4.47715 0 10V10C0 15.5228 4.47715 20 10 20Z" transform="translate(1 1)" stroke="#A0B0B9"/>
</svg>
