<svg width="16" height="16" viewBox="0 0 16 16" fill="none" xmlns="http://www.w3.org/2000/svg">
<path id="clear" fill-rule="evenodd" clip-rule="evenodd" d="M8 0C3.58154 0 0 3.58173 0 8C0 12.4183 3.58154 16 8 16C12.4185 16 16 12.4183 16 8C16 3.58173 12.4185 0 8 0ZM6.12939 10.806L7.99951 8.93481L9.87109 10.806C10.0381 10.973 10.2817 11.0381 10.5098 10.9769C10.7383 10.9156 10.9165 10.7371 10.9775 10.5088C11.0386 10.2805 10.9731 10.0369 10.8062 9.86989L8.93604 7.99974L10.8062 6.12959C10.9731 5.96237 11.0381 5.71875 10.9771 5.49049C10.9155 5.26222 10.7373 5.084 10.5088 5.02295C10.2803 4.9619 10.0371 5.0273 9.87012 5.19452L7.99951 7.06366L6.12939 5.19351C5.87109 4.9353 5.45215 4.93552 5.19385 5.19402C4.93604 5.4525 4.93604 5.87138 5.19434 6.12959L7.06348 7.99974L5.19336 9.8709C4.93506 10.1294 4.93555 10.5483 5.19385 10.8065C5.45264 11.0647 5.87158 11.0645 6.12939 10.806Z" fill="#A0B0B9"/>
</svg>
