<svg width="12" height="12" viewBox="0 0 12 12" fill="none" xmlns="http://www.w3.org/2000/svg">
<path fill-rule="evenodd" clip-rule="evenodd" d="M6 0C2.69189 0 0 2.623 0 5.84599C0 9.069 2.69189 11.692 6 11.692C9.30811 11.692 12 9.069 12 5.84599C12 2.623 9.30811 0 6 0ZM6 0.923004C8.7959 0.923004 11.0527 3.12201 11.0527 5.84601C11.0527 8.57001 8.7959 10.769 6 10.769C3.20361 10.769 0.946777 8.57001 0.946777 5.84601C0.946777 3.12201 3.20361 0.923004 6 0.923004ZM5.52588 2.153C5.53027 1.89529 5.74219 1.68965 6 1.69299C6.12402 1.6904 6.24365 1.73817 6.33252 1.82481C6.42139 1.91145 6.47217 2.02988 6.47412 2.15399V5.582L9.24707 7.13899C9.35498 7.1982 9.43408 7.29872 9.4668 7.4175C9.49902 7.53629 9.48193 7.66315 9.41895 7.769C9.28418 7.99005 8.99805 8.06438 8.77295 7.937L5.7627 6.245C5.62207 6.166 5.52588 6.01599 5.52588 5.84599V2.153Z" transform="translate(0 0.153992)" fill="#2196F3"/>
</svg>
