<svg width="18" height="14" viewBox="0 0 18 14" fill="none" xmlns="http://www.w3.org/2000/svg">
<path fill-rule="evenodd" clip-rule="evenodd" d="M5.64494 11H0.993397C0.444945 11 0 11.4477 0 12C0 12.5561 0.444758 13 0.993397 13H5.64494C5.55064 12.6831 5.5 12.3475 5.5 12C5.5 11.6525 5.55064 11.3169 5.64494 11ZM12.3551 11H17.0066C17.5552 11 18 11.4439 18 12C18 12.5523 17.5551 13 17.0066 13H12.3551C12.4494 12.6831 12.5 12.3475 12.5 12C12.5 11.6525 12.4494 11.3169 12.3551 11ZM12.6449 6H0.993397C0.444945 6 0 6.44772 0 7C0 7.55614 0.444758 8 0.993397 8H12.6449C12.5506 7.68315 12.5 7.34749 12.5 7C12.5 6.65251 12.5506 6.31685 12.6449 6ZM2.64494 1H0.993397C0.444945 1 0 1.44772 0 2C0 2.55614 0.444758 3 0.993397 3H2.64494C2.55064 2.68315 2.5 2.34749 2.5 2C2.5 1.65251 2.55064 1.31685 2.64494 1ZM9.35506 1H17.0066C17.5552 1 18 1.44386 18 2C18 2.55228 17.5551 3 17.0066 3H9.35506C9.44936 2.68315 9.5 2.34749 9.5 2C9.5 1.65251 9.44936 1.31685 9.35506 1ZM6 4C7.10457 4 8 3.10457 8 2C8 0.89543 7.10457 0 6 0C4.89543 0 4 0.89543 4 2C4 3.10457 4.89543 4 6 4ZM16 9C17.1046 9 18 8.10457 18 7C18 5.89543 17.1046 5 16 5C14.8954 5 14 5.89543 14 7C14 8.10457 14.8954 9 16 9ZM9 14C10.1046 14 11 13.1046 11 12C11 10.8954 10.1046 10 9 10C7.89543 10 7 10.8954 7 12C7 13.1046 7.89543 14 9 14Z" fill="white"/>
</svg>
