<svg width="18" height="23" viewBox="0 0 18 23" fill="none" xmlns="http://www.w3.org/2000/svg">
<path fill-rule="evenodd" clip-rule="evenodd" d="M13.1023 0.0869141C13.115 0.10791 13.1235 0.131348 13.1274 0.15625C13.1331 0.19043 13.1304 0.227051 13.1187 0.262207C13.1118 0.283203 13.1018 0.303711 13.0889 0.322754L11.9492 1.99219C13.7607 2.84326 14.8384 4.11328 15 6H3C3.16138 4.11328 4.29102 2.84326 6.10229 1.99219L4.96289 0.322754C4.93286 0.278809 4.91943 0.228516 4.92163 0.180664C4.92432 0.121094 4.95142 0.065918 5.00049 0.0317383C5.08887 -0.0297852 5.21533 0.000488281 5.28296 0.100098L6.46655 1.83447C7.24658 1.52441 8.11304 1.35156 9.02588 1.35156C9.93872 1.35156 10.8052 1.52441 11.5852 1.83447L12.7688 0.100098C12.8362 0.000488281 12.9629 -0.0297852 13.0513 0.0317383C13.0725 0.0463867 13.0896 0.0654297 13.1023 0.0869141ZM3 17C3 17.6025 3.4939 18.0576 4.09082 18.0576H4.90918V21.3662C4.90918 22.1514 5.37085 23 6.13647 23C6.9021 23 7.36353 22.1514 7.36353 21.3662V18.0576H10.6365V21.3662C10.6365 22.1514 11.0981 23 11.8635 23C12.6292 23 13.0908 22.1514 13.0908 21.3662V18.0576H13.9092C14.5063 18.0576 15 17.6025 15 17V7H3V17ZM0 8.70557C0 8.14941 0.231201 7.66943 0.56665 7.44336C0.697754 7.35498 0.844727 7.30566 1 7.30566C1.55225 7.30566 2 7.93213 2 8.70557V14.1763C2 14.9497 1.55225 15.5767 1 15.5767C0.447754 15.5767 0 14.9497 0 14.1763V8.70557ZM16 8.70557C16 7.93213 16.4478 7.30566 16.9998 7.30566C17.5522 7.30566 18 7.93213 18 8.70557V14.1763C18 14.9497 17.5522 15.5767 16.9998 15.5767C16.7888 15.5767 16.5933 15.4854 16.4319 15.3291C16.3235 15.2241 16.2307 15.0898 16.1592 14.9346C16.0586 14.7158 16 14.4556 16 14.1763V8.70557ZM6.42407 4.62402C6.04736 4.62402 5.7417 4.31543 5.7417 3.93506C5.7417 3.55469 6.04736 3.24609 6.42407 3.24609C6.63403 3.24609 6.82178 3.3418 6.94702 3.49268C7.04663 3.6123 7.10645 3.7666 7.10645 3.93506C7.10645 4.31543 6.80103 4.62402 6.42407 4.62402ZM11.0305 3.93506C11.0305 4.31543 11.3362 4.62402 11.7129 4.62402C12.0898 4.62402 12.3953 4.31543 12.3953 3.93506C12.3953 3.55469 12.0898 3.24609 11.7129 3.24609C11.3362 3.24609 11.0305 3.55469 11.0305 3.93506Z" fill="white"/>
</svg>
