<svg width="18" height="22" viewBox="0 0 18 22" fill="none" xmlns="http://www.w3.org/2000/svg">
<path fill-rule="evenodd" clip-rule="evenodd" d="M13.3999 0C13.5427 1.28809 13.0225 2.58301 12.2495 3.5127C11.4775 4.44238 10.2117 5.16504 8.97217 5.06934C8.80151 3.80811 9.4292 2.48975 10.1436 1.6665C10.9417 0.737793 12.2869 0.0439453 13.3999 0ZM17.4221 7.50146C17.3167 7.56592 15.0076 8.9043 15.0339 11.688C15.0632 15.0176 17.9663 16.127 18 16.1392L17.9946 16.1567C17.9363 16.3442 17.4905 17.7832 16.4692 19.2671C15.5476 20.6094 14.593 21.9443 13.0862 21.9717C12.363 21.9849 11.8792 21.7769 11.3762 21.5601C10.8499 21.3335 10.3025 21.0981 9.43726 21.0981C8.53076 21.0981 7.95776 21.3408 7.40625 21.5747C6.92798 21.7773 6.46558 21.9731 5.81567 21.9985C4.36133 22.0537 3.25342 20.5498 2.32544 19.2148C0.427246 16.4834 -1.02393 11.4956 0.924805 8.12939C1.89209 6.45801 3.62134 5.39893 5.49707 5.37109C6.57959 5.35107 7.61499 5.91016 8.43359 6.18262C8.6958 6.27002 8.93555 6.32764 9.14746 6.32764C9.48071 6.32764 9.9165 6.15576 10.4309 5.95312C11.2456 5.63184 12.2576 5.23291 13.3728 5.31543C14.0859 5.36816 16.1106 5.58057 17.4221 7.50146Z" fill="white"/>
</svg>
