<svg width="80" height="80" viewBox="0 0 80 80" fill="none" xmlns="http://www.w3.org/2000/svg">
<g filter="url(#filter0_d)">
<path fill-rule="evenodd" clip-rule="evenodd" d="M0 24C0 10.7452 10.7452 0 24 0C37.2548 0 48 10.7452 48 24C48 37.2548 37.2548 48 24 48C10.7452 48 0 37.2548 0 24Z" transform="translate(16 12)" fill="white"/>
</g>
<path fill-rule="evenodd" clip-rule="evenodd" d="M0 11C0 4.92798 4.91699 0 10.989 0C17.072 0 22 4.92798 22 11C22 17.072 17.072 22 10.989 22C4.91699 22 0 17.072 0 11ZM15.3672 6.60004H18.6121C17.5562 4.78503 15.873 3.37701 13.8491 2.68402C14.509 3.90503 15.0151 5.22504 15.3672 6.60004ZM11 2.24402C11.9128 3.56403 12.6279 5.02704 13.1008 6.60004H8.89893C9.37183 5.02704 10.0869 3.56403 11 2.24402ZM2.19995 11C2.19995 11.759 2.31006 12.496 2.48584 13.2H6.20386C6.11597 12.474 6.05005 11.748 6.05005 11C6.05005 10.252 6.11597 9.526 6.20386 8.79999H2.48584C2.31006 9.50397 2.19995 10.241 2.19995 11ZM3.38794 15.4H6.63306C6.98486 16.775 7.49097 18.095 8.15088 19.316C6.12695 18.623 4.44385 17.226 3.38794 15.4ZM3.38794 6.60004H6.63306C6.98486 5.22504 7.49097 3.90503 8.15088 2.68402C6.12695 3.37701 4.44385 4.77405 3.38794 6.60004ZM11 19.756C10.0869 18.436 9.37183 16.973 8.89893 15.4H13.1008C12.6279 16.973 11.9128 18.436 11 19.756ZM8.25 11C8.25 11.748 8.3269 12.474 8.42603 13.2H13.574C13.6731 12.474 13.75 11.748 13.75 11C13.75 10.252 13.6731 9.51501 13.574 8.79999H8.42603C8.3269 9.51501 8.25 10.252 8.25 11ZM13.8491 19.316C14.509 18.095 15.0151 16.775 15.3672 15.4H18.6121C17.5562 17.215 15.873 18.623 13.8491 19.316ZM15.95 11C15.95 11.748 15.8838 12.474 15.7959 13.2H19.5139C19.6899 12.496 19.7998 11.759 19.7998 11C19.7998 10.241 19.6899 9.50397 19.5139 8.79999H15.7959C15.8838 9.526 15.95 10.252 15.95 11Z" transform="translate(29 25)" fill="#A0B0B9"/>
<defs>
<filter id="filter0_d" x="0" y="0" width="80" height="80" filterUnits="userSpaceOnUse" color-interpolation-filters="sRGB">
<feFlood flood-opacity="0" result="BackgroundImageFix"/>
<feColorMatrix in="SourceAlpha" type="matrix" values="0 0 0 0 0 0 0 0 0 0 0 0 0 0 0 0 0 0 255 0"/>
<feOffset dy="4"/>
<feGaussianBlur stdDeviation="8"/>
<feColorMatrix type="matrix" values="0 0 0 0 0.290196 0 0 0 0 0.290196 0 0 0 0 0.290196 0 0 0 0.12 0"/>
<feBlend mode="normal" in2="BackgroundImageFix" result="effect1_dropShadow"/>
<feBlend mode="normal" in="SourceGraphic" in2="effect1_dropShadow" result="shape"/>
</filter>
</defs>
</svg>
