<svg width="125" height="42" viewBox="0 0 125 42" fill="none" xmlns="http://www.w3.org/2000/svg">
<path fill-rule="evenodd" clip-rule="evenodd" d="M0 5C0 2.23858 2.23858 0 5 0H120C122.761 0 125 2.23858 125 5V37C125 39.7614 122.761 42 120 42H5C2.23858 42 0 39.7614 0 37V5Z" fill="#1E292D"/>
<path d="M5.44922 8.96973C5.37012 9.64648 5.11963 10.1694 4.69775 10.5386C4.27881 10.9048 3.7207 11.0879 3.02344 11.0879C2.26758 11.0879 1.66113 10.8169 1.2041 10.2749C0.75 9.73291 0.522949 9.00781 0.522949 8.09961V7.48438C0.522949 6.88965 0.628418 6.3667 0.839355 5.91553C1.05322 5.46436 1.35498 5.11865 1.74463 4.87842C2.13428 4.63525 2.58545 4.51367 3.09814 4.51367C3.77783 4.51367 4.32275 4.7041 4.73291 5.08496C5.14307 5.46289 5.38184 5.9873 5.44922 6.6582H4.60107C4.52783 6.14844 4.36816 5.7793 4.12207 5.55078C3.87891 5.32227 3.5376 5.20801 3.09814 5.20801C2.55908 5.20801 2.13574 5.40723 1.82812 5.80566C1.52344 6.2041 1.37109 6.771 1.37109 7.50635V8.12598C1.37109 8.82031 1.51611 9.37256 1.80615 9.78271C2.09619 10.1929 2.50195 10.3979 3.02344 10.3979C3.49219 10.3979 3.85107 10.2925 4.1001 10.0815C4.35205 9.86768 4.51904 9.49707 4.60107 8.96973H5.44922ZM7.9585 8.97412H7.36523V11H6.54785V6.24512H7.36523V8.25781H7.89697L9.49658 6.24512H10.481L8.6001 8.53027L10.6392 11H9.60645L7.9585 8.97412ZM14.2734 11C14.2266 10.9062 14.1885 10.7393 14.1592 10.499C13.7812 10.8916 13.3301 11.0879 12.8057 11.0879C12.3369 11.0879 11.9517 10.9561 11.6499 10.6924C11.3511 10.4258 11.2017 10.0889 11.2017 9.68164C11.2017 9.18652 11.3892 8.80273 11.7642 8.53027C12.1421 8.25488 12.6724 8.11719 13.355 8.11719H14.146V7.74365C14.146 7.45947 14.061 7.23389 13.8911 7.06689C13.7212 6.89697 13.4707 6.81201 13.1396 6.81201C12.8496 6.81201 12.6064 6.88525 12.4102 7.03174C12.2139 7.17822 12.1157 7.35547 12.1157 7.56348H11.2983C11.2983 7.32617 11.3818 7.09766 11.5488 6.87793C11.7188 6.65527 11.9473 6.47949 12.2344 6.35059C12.5244 6.22168 12.8423 6.15723 13.188 6.15723C13.7358 6.15723 14.165 6.29492 14.4756 6.57031C14.7861 6.84277 14.9473 7.21924 14.959 7.69971V9.88818C14.959 10.3247 15.0146 10.6719 15.126 10.9297V11H14.2734ZM12.9243 10.3804C13.1792 10.3804 13.4209 10.3145 13.6494 10.1826C13.8779 10.0508 14.0435 9.87939 14.146 9.66846V8.69287H13.5088C12.5127 8.69287 12.0146 8.98438 12.0146 9.56738C12.0146 9.82227 12.0996 10.0215 12.2695 10.165C12.4395 10.3086 12.6577 10.3804 12.9243 10.3804ZM19.8237 11H19.0063V9.27734C18.6489 9.37109 18.2827 9.41797 17.9077 9.41797C17.313 9.41797 16.8589 9.26563 16.5454 8.96094C16.2349 8.65625 16.0767 8.22266 16.0708 7.66016V6.24072H16.8838V7.68652C16.8984 8.39551 17.2397 8.75 17.9077 8.75C18.2827 8.75 18.6489 8.70312 19.0063 8.60938V6.24512H19.8237V11ZM24.0645 11C24.0176 10.9062 23.9795 10.7393 23.9502 10.499C23.5723 10.8916 23.1211 11.0879 22.5967 11.0879C22.1279 11.0879 21.7427 10.9561 21.4409 10.6924C21.1421 10.4258 20.9927 10.0889 20.9927 9.68164C20.9927 9.18652 21.1802 8.80273 21.5552 8.53027C21.9331 8.25488 22.4634 8.11719 23.146 8.11719H23.937V7.74365C23.937 7.45947 23.8521 7.23389 23.6821 7.06689C23.5122 6.89697 23.2617 6.81201 22.9307 6.81201C22.6406 6.81201 22.3975 6.88525 22.2012 7.03174C22.0049 7.17822 21.9067 7.35547 21.9067 7.56348H21.0894C21.0894 7.32617 21.1729 7.09766 21.3398 6.87793C21.5098 6.65527 21.7383 6.47949 22.0254 6.35059C22.3154 6.22168 22.6333 6.15723 22.979 6.15723C23.5269 6.15723 23.9561 6.29492 24.2666 6.57031C24.5771 6.84277 24.7383 7.21924 24.75 7.69971V9.88818C24.75 10.3247 24.8057 10.6719 24.917 10.9297V11H24.0645ZM22.7153 10.3804C22.9702 10.3804 23.2119 10.3145 23.4404 10.1826C23.6689 10.0508 23.8345 9.87939 23.937 9.66846V8.69287H23.2998C22.3037 8.69287 21.8057 8.98438 21.8057 9.56738C21.8057 9.82227 21.8906 10.0215 22.0605 10.165C22.2305 10.3086 22.4487 10.3804 22.7153 10.3804ZM29.1006 6.24512H29.9136V11H29.1006V7.53271L26.9077 11H26.0947V6.24512H26.9077V9.7168L29.1006 6.24512ZM29.3203 4.51367C29.3203 4.86816 29.1987 5.15381 28.9556 5.37061C28.7153 5.58447 28.3989 5.69141 28.0063 5.69141C27.6138 5.69141 27.2959 5.58301 27.0527 5.36621C26.8096 5.14941 26.688 4.86523 26.688 4.51367H27.3516C27.3516 4.71875 27.4072 4.87988 27.5186 4.99707C27.6299 5.11133 27.7925 5.16846 28.0063 5.16846C28.2114 5.16846 28.3711 5.11133 28.4854 4.99707C28.6025 4.88281 28.6611 4.72168 28.6611 4.51367H29.3203ZM34.752 6.9043H33.1567V11H32.3438V6.9043H30.7793V6.24512H34.752V6.9043ZM37.1646 11.0879C36.52 11.0879 35.9956 10.877 35.5913 10.4551C35.187 10.0303 34.9849 9.46338 34.9849 8.75439V8.60498C34.9849 8.1333 35.0742 7.71289 35.2529 7.34375C35.4346 6.97168 35.6865 6.68164 36.0088 6.47363C36.334 6.2627 36.6855 6.15723 37.0635 6.15723C37.6816 6.15723 38.1621 6.36084 38.5049 6.76807C38.8477 7.17529 39.019 7.7583 39.019 8.51709V8.85547H35.7979C35.8096 9.32422 35.9458 9.70361 36.2065 9.99365C36.4702 10.2808 36.8042 10.4243 37.2085 10.4243C37.4956 10.4243 37.7388 10.3657 37.938 10.2485C38.1372 10.1313 38.3115 9.97607 38.4609 9.78271L38.9575 10.1694C38.5591 10.7817 37.9614 11.0879 37.1646 11.0879ZM37.0635 6.8252C36.7354 6.8252 36.46 6.94531 36.2373 7.18555C36.0146 7.42285 35.877 7.75684 35.8242 8.1875H38.2061V8.12598C38.1826 7.71289 38.0713 7.39355 37.8721 7.16797C37.6729 6.93945 37.4033 6.8252 37.0635 6.8252ZM42.271 11V6.24512H44.1255C44.7583 6.24512 45.2432 6.35645 45.5801 6.5791C45.9199 6.79883 46.0898 7.12256 46.0898 7.55029C46.0898 7.77002 46.0239 7.96924 45.8921 8.14795C45.7603 8.32373 45.5654 8.4585 45.3076 8.55225C45.5947 8.61963 45.8247 8.75146 45.9976 8.94775C46.1733 9.14404 46.2612 9.37842 46.2612 9.65088C46.2612 10.0874 46.1001 10.4214 45.7778 10.6528C45.4585 10.8843 45.0059 11 44.4199 11H42.271ZM43.084 8.9126V10.3452H44.4287C44.7686 10.3452 45.022 10.2822 45.189 10.1562C45.3589 10.0303 45.4438 9.85303 45.4438 9.62451C45.4438 9.1499 45.0952 8.9126 44.3979 8.9126H43.084ZM43.084 8.26221H44.1343C44.896 8.26221 45.2769 8.03955 45.2769 7.59424C45.2769 7.14893 44.9165 6.91895 44.1958 6.9043H43.084V8.26221Z" transform="translate(43 6)" fill="white"/>
<path d="M5.57812 10.2422H2.49609L1.91016 12H0.0410156L3.2168 3.46875H4.8457L8.03906 12H6.16992L5.57812 10.2422ZM2.9707 8.81836H5.10352L4.03125 5.625L2.9707 8.81836ZM14.1504 8.88867C14.1504 9.86523 13.9277 10.6484 13.4824 11.2383C13.041 11.8242 12.4434 12.1172 11.6895 12.1172C11.0488 12.1172 10.5313 11.8945 10.1367 11.4492V14.4375H8.44336V5.66016H10.0137L10.0723 6.28125C10.4824 5.78906 11.0176 5.54297 11.6777 5.54297C12.459 5.54297 13.0664 5.83203 13.5 6.41016C13.9336 6.98828 14.1504 7.78516 14.1504 8.80078V8.88867ZM12.457 8.76562C12.457 8.17578 12.3516 7.7207 12.1406 7.40039C11.9336 7.08008 11.6309 6.91992 11.2324 6.91992C10.7012 6.91992 10.3359 7.12305 10.1367 7.5293V10.125C10.3438 10.543 10.7129 10.752 11.2441 10.752C12.0527 10.752 12.457 10.0898 12.457 8.76562ZM20.9121 8.88867C20.9121 9.86523 20.6895 10.6484 20.2441 11.2383C19.8027 11.8242 19.2051 12.1172 18.4512 12.1172C17.8105 12.1172 17.293 11.8945 16.8984 11.4492V14.4375H15.2051V5.66016H16.7754L16.834 6.28125C17.2441 5.78906 17.7793 5.54297 18.4395 5.54297C19.2207 5.54297 19.8281 5.83203 20.2617 6.41016C20.6953 6.98828 20.9121 7.78516 20.9121 8.80078V8.88867ZM19.2188 8.76562C19.2188 8.17578 19.1133 7.7207 18.9023 7.40039C18.6953 7.08008 18.3926 6.91992 17.9941 6.91992C17.4629 6.91992 17.0977 7.12305 16.8984 7.5293V10.125C17.1055 10.543 17.4746 10.752 18.0059 10.752C18.8145 10.752 19.2188 10.0898 19.2188 8.76562ZM29.4902 9.76172C29.4902 9.42969 29.373 9.17578 29.1387 9C28.9043 8.82031 28.4824 8.63281 27.873 8.4375C27.2637 8.23828 26.7812 8.04297 26.4258 7.85156C25.457 7.32813 24.9727 6.62305 24.9727 5.73633C24.9727 5.27539 25.1016 4.86523 25.3594 4.50586C25.6211 4.14258 25.9941 3.85937 26.4785 3.65625C26.9668 3.45313 27.5137 3.35156 28.1191 3.35156C28.7285 3.35156 29.2715 3.46289 29.748 3.68555C30.2246 3.9043 30.5938 4.21484 30.8555 4.61719C31.1211 5.01953 31.2539 5.47656 31.2539 5.98828H29.4961C29.4961 5.59766 29.373 5.29492 29.127 5.08008C28.8809 4.86133 28.5352 4.75195 28.0898 4.75195C27.6602 4.75195 27.3262 4.84375 27.0879 5.02734C26.8496 5.20703 26.7305 5.44531 26.7305 5.74219C26.7305 6.01953 26.8691 6.25195 27.1465 6.43945C27.4277 6.62695 27.8398 6.80273 28.3828 6.9668C29.3828 7.26758 30.1113 7.64062 30.5684 8.08594C31.0254 8.53125 31.2539 9.08594 31.2539 9.75C31.2539 10.4883 30.9746 11.0684 30.416 11.4902C29.8574 11.9082 29.1055 12.1172 28.1602 12.1172C27.5039 12.1172 26.9062 11.998 26.3672 11.7598C25.8281 11.5176 25.416 11.1875 25.1309 10.7695C24.8496 10.3516 24.709 9.86719 24.709 9.31641H26.4727C26.4727 10.2578 27.0352 10.7285 28.1602 10.7285C28.5781 10.7285 28.9043 10.6445 29.1387 10.4766C29.373 10.3047 29.4902 10.0664 29.4902 9.76172ZM34.3652 4.10156V5.66016H35.4492V6.90234H34.3652V10.0664C34.3652 10.3008 34.4102 10.4687 34.5 10.5703C34.5898 10.6719 34.7617 10.7227 35.0156 10.7227C35.2031 10.7227 35.3691 10.709 35.5137 10.6816V11.9648C35.1816 12.0664 34.8398 12.1172 34.4883 12.1172C33.3008 12.1172 32.6953 11.5176 32.6719 10.3184V6.90234H31.7461V5.66016H32.6719V4.10156H34.3652ZM35.9531 8.77148C35.9531 8.14258 36.0742 7.58203 36.3164 7.08984C36.5586 6.59766 36.9063 6.2168 37.3594 5.94727C37.8164 5.67773 38.3457 5.54297 38.9473 5.54297C39.8027 5.54297 40.5 5.80469 41.0391 6.32812C41.582 6.85156 41.8848 7.5625 41.9473 8.46094L41.959 8.89453C41.959 9.86719 41.6875 10.6484 41.1445 11.2383C40.6016 11.8242 39.873 12.1172 38.959 12.1172C38.0449 12.1172 37.3145 11.8242 36.7676 11.2383C36.2246 10.6523 35.9531 9.85547 35.9531 8.84766V8.77148ZM37.6465 8.89453C37.6465 9.49609 37.7598 9.95703 37.9863 10.2773C38.2129 10.5938 38.5371 10.752 38.959 10.752C39.3691 10.752 39.6895 10.5957 39.9199 10.2832C40.1504 9.9668 40.2656 9.46289 40.2656 8.77148C40.2656 8.18164 40.1504 7.72461 39.9199 7.40039C39.6895 7.07617 39.3652 6.91406 38.9473 6.91406C38.5332 6.91406 38.2129 7.07617 37.9863 7.40039C37.7598 7.7207 37.6465 8.21875 37.6465 8.89453ZM46.5645 7.24805C46.334 7.2168 46.1309 7.20117 45.9551 7.20117C45.3145 7.20117 44.8945 7.41797 44.6953 7.85156V12H43.002V5.66016H44.6016L44.6484 6.41602C44.9883 5.83398 45.459 5.54297 46.0605 5.54297C46.248 5.54297 46.4238 5.56836 46.5879 5.61914L46.5645 7.24805ZM50.1855 12.1172C49.2559 12.1172 48.498 11.832 47.9121 11.2617C47.3301 10.6914 47.0391 9.93164 47.0391 8.98242V8.81836C47.0391 8.18164 47.1621 7.61328 47.4082 7.11328C47.6543 6.60938 48.002 6.22266 48.4512 5.95312C48.9043 5.67969 49.4199 5.54297 49.998 5.54297C50.8652 5.54297 51.5469 5.81641 52.043 6.36328C52.543 6.91016 52.793 7.68555 52.793 8.68945V9.38086H48.7559C48.8105 9.79492 48.9746 10.127 49.248 10.377C49.5254 10.627 49.875 10.752 50.2969 10.752C50.9492 10.752 51.459 10.5156 51.8262 10.043L52.6582 10.9746C52.4043 11.334 52.0605 11.6152 51.627 11.8184C51.1934 12.0176 50.7129 12.1172 50.1855 12.1172ZM49.9922 6.91406C49.6563 6.91406 49.3828 7.02734 49.1719 7.25391C48.9648 7.48047 48.832 7.80469 48.7734 8.22656H51.1289V8.0918C51.1211 7.7168 51.0195 7.42773 50.8242 7.22461C50.6289 7.01758 50.3516 6.91406 49.9922 6.91406Z" transform="translate(43 21)" fill="white"/>
<path fill-rule="evenodd" clip-rule="evenodd" d="M17.2503 13.0644C17.2215 9.96078 19.8763 8.45087 19.9977 8.38057C18.4941 6.25918 16.1637 5.96934 15.3448 5.94623C13.3875 5.74689 11.489 7.07962 10.4919 7.07962C9.47498 7.07962 7.93962 5.96548 6.28485 5.99822C4.15543 6.03 2.16334 7.2231 1.07077 9.07582C-1.18402 12.8535 0.497621 18.4049 2.65788 21.4585C3.73851 22.9549 5.00123 24.6237 6.65401 24.5649C8.27097 24.5014 8.87497 23.5673 10.8263 23.5673C12.7597 23.5673 13.3268 24.5649 15.0125 24.5264C16.7478 24.5014 17.8404 23.0252 18.8832 21.5153C20.132 19.8031 20.6335 18.1131 20.6534 18.0265C20.6136 18.014 17.2842 16.7843 17.2503 13.0644ZM14.0664 3.93752C14.936 2.88501 15.5311 1.4531 15.3659 0C14.1072 0.0539254 12.533 0.842585 11.6265 1.87198C10.8245 2.77909 10.108 4.26589 10.2931 5.66409C11.7071 5.76617 13.1589 4.97366 14.0664 3.93752Z" transform="translate(12 8)" fill="white" stroke="white" stroke-opacity="0.16" stroke-width="0.846154"/>
</svg>
