<svg width="125" height="42" viewBox="0 0 125 42" fill="none" xmlns="http://www.w3.org/2000/svg">
<path fill-rule="evenodd" clip-rule="evenodd" d="M0 5C0 2.23858 2.23858 0 5 0H120C122.761 0 125 2.23858 125 5V37C125 39.7614 122.761 42 120 42H5C2.23858 42 0 39.7614 0 37V5Z" fill="#1E292D"/>
<path d="M10.0015 5.14829C10.0015 5.14829 1.49752 0.409433 0.998068 0.131021C0.497788 -0.147391 0 0.0214957 0 0.603402V10.7199V21.042C0 21.4776 0.355681 21.6666 0.790311 21.4249C1.22411 21.1833 10.0015 16.2915 10.0015 16.2915L11.79 15.2953C12.7495 14.7609 14.6685 13.6921 14.6685 13.6921C14.6685 13.6921 18.6284 11.4849 19.1553 11.1923C19.6813 10.8988 19.6306 10.4966 19.1868 10.265C18.7422 10.0343 14.6685 7.74847 14.6685 7.74847L10.0015 5.14829Z" transform="translate(14 10)" fill="white"/>
<path d="M5.44922 8.96973C5.37012 9.64648 5.11963 10.1694 4.69775 10.5386C4.27881 10.9048 3.7207 11.0879 3.02344 11.0879C2.26758 11.0879 1.66113 10.8169 1.2041 10.2749C0.75 9.73291 0.522949 9.00781 0.522949 8.09961V7.48438C0.522949 6.88965 0.628418 6.3667 0.839355 5.91553C1.05322 5.46436 1.35498 5.11865 1.74463 4.87842C2.13428 4.63525 2.58545 4.51367 3.09814 4.51367C3.77783 4.51367 4.32275 4.7041 4.73291 5.08496C5.14307 5.46289 5.38184 5.9873 5.44922 6.6582H4.60107C4.52783 6.14844 4.36816 5.7793 4.12207 5.55078C3.87891 5.32227 3.5376 5.20801 3.09814 5.20801C2.55908 5.20801 2.13574 5.40723 1.82812 5.80566C1.52344 6.2041 1.37109 6.771 1.37109 7.50635V8.12598C1.37109 8.82031 1.51611 9.37256 1.80615 9.78271C2.09619 10.1929 2.50195 10.3979 3.02344 10.3979C3.49219 10.3979 3.85107 10.2925 4.1001 10.0815C4.35205 9.86768 4.51904 9.49707 4.60107 8.96973H5.44922ZM7.9585 8.97412H7.36523V11H6.54785V6.24512H7.36523V8.25781H7.89697L9.49658 6.24512H10.481L8.6001 8.53027L10.6392 11H9.60645L7.9585 8.97412ZM14.2734 11C14.2266 10.9062 14.1885 10.7393 14.1592 10.499C13.7812 10.8916 13.3301 11.0879 12.8057 11.0879C12.3369 11.0879 11.9517 10.9561 11.6499 10.6924C11.3511 10.4258 11.2017 10.0889 11.2017 9.68164C11.2017 9.18652 11.3892 8.80273 11.7642 8.53027C12.1421 8.25488 12.6724 8.11719 13.355 8.11719H14.146V7.74365C14.146 7.45947 14.061 7.23389 13.8911 7.06689C13.7212 6.89697 13.4707 6.81201 13.1396 6.81201C12.8496 6.81201 12.6064 6.88525 12.4102 7.03174C12.2139 7.17822 12.1157 7.35547 12.1157 7.56348H11.2983C11.2983 7.32617 11.3818 7.09766 11.5488 6.87793C11.7188 6.65527 11.9473 6.47949 12.2344 6.35059C12.5244 6.22168 12.8423 6.15723 13.188 6.15723C13.7358 6.15723 14.165 6.29492 14.4756 6.57031C14.7861 6.84277 14.9473 7.21924 14.959 7.69971V9.88818C14.959 10.3247 15.0146 10.6719 15.126 10.9297V11H14.2734ZM12.9243 10.3804C13.1792 10.3804 13.4209 10.3145 13.6494 10.1826C13.8779 10.0508 14.0435 9.87939 14.146 9.66846V8.69287H13.5088C12.5127 8.69287 12.0146 8.98438 12.0146 9.56738C12.0146 9.82227 12.0996 10.0215 12.2695 10.165C12.4395 10.3086 12.6577 10.3804 12.9243 10.3804ZM19.8237 11H19.0063V9.27734C18.6489 9.37109 18.2827 9.41797 17.9077 9.41797C17.313 9.41797 16.8589 9.26563 16.5454 8.96094C16.2349 8.65625 16.0767 8.22266 16.0708 7.66016V6.24072H16.8838V7.68652C16.8984 8.39551 17.2397 8.75 17.9077 8.75C18.2827 8.75 18.6489 8.70312 19.0063 8.60938V6.24512H19.8237V11ZM24.0645 11C24.0176 10.9062 23.9795 10.7393 23.9502 10.499C23.5723 10.8916 23.1211 11.0879 22.5967 11.0879C22.1279 11.0879 21.7427 10.9561 21.4409 10.6924C21.1421 10.4258 20.9927 10.0889 20.9927 9.68164C20.9927 9.18652 21.1802 8.80273 21.5552 8.53027C21.9331 8.25488 22.4634 8.11719 23.146 8.11719H23.937V7.74365C23.937 7.45947 23.8521 7.23389 23.6821 7.06689C23.5122 6.89697 23.2617 6.81201 22.9307 6.81201C22.6406 6.81201 22.3975 6.88525 22.2012 7.03174C22.0049 7.17822 21.9067 7.35547 21.9067 7.56348H21.0894C21.0894 7.32617 21.1729 7.09766 21.3398 6.87793C21.5098 6.65527 21.7383 6.47949 22.0254 6.35059C22.3154 6.22168 22.6333 6.15723 22.979 6.15723C23.5269 6.15723 23.9561 6.29492 24.2666 6.57031C24.5771 6.84277 24.7383 7.21924 24.75 7.69971V9.88818C24.75 10.3247 24.8057 10.6719 24.917 10.9297V11H24.0645ZM22.7153 10.3804C22.9702 10.3804 23.2119 10.3145 23.4404 10.1826C23.6689 10.0508 23.8345 9.87939 23.937 9.66846V8.69287H23.2998C22.3037 8.69287 21.8057 8.98438 21.8057 9.56738C21.8057 9.82227 21.8906 10.0215 22.0605 10.165C22.2305 10.3086 22.4487 10.3804 22.7153 10.3804ZM29.1006 6.24512H29.9136V11H29.1006V7.53271L26.9077 11H26.0947V6.24512H26.9077V9.7168L29.1006 6.24512ZM29.3203 4.51367C29.3203 4.86816 29.1987 5.15381 28.9556 5.37061C28.7153 5.58447 28.3989 5.69141 28.0063 5.69141C27.6138 5.69141 27.2959 5.58301 27.0527 5.36621C26.8096 5.14941 26.688 4.86523 26.688 4.51367H27.3516C27.3516 4.71875 27.4072 4.87988 27.5186 4.99707C27.6299 5.11133 27.7925 5.16846 28.0063 5.16846C28.2114 5.16846 28.3711 5.11133 28.4854 4.99707C28.6025 4.88281 28.6611 4.72168 28.6611 4.51367H29.3203ZM34.752 6.9043H33.1567V11H32.3438V6.9043H30.7793V6.24512H34.752V6.9043ZM37.1646 11.0879C36.52 11.0879 35.9956 10.877 35.5913 10.4551C35.187 10.0303 34.9849 9.46338 34.9849 8.75439V8.60498C34.9849 8.1333 35.0742 7.71289 35.2529 7.34375C35.4346 6.97168 35.6865 6.68164 36.0088 6.47363C36.334 6.2627 36.6855 6.15723 37.0635 6.15723C37.6816 6.15723 38.1621 6.36084 38.5049 6.76807C38.8477 7.17529 39.019 7.7583 39.019 8.51709V8.85547H35.7979C35.8096 9.32422 35.9458 9.70361 36.2065 9.99365C36.4702 10.2808 36.8042 10.4243 37.2085 10.4243C37.4956 10.4243 37.7388 10.3657 37.938 10.2485C38.1372 10.1313 38.3115 9.97607 38.4609 9.78271L38.9575 10.1694C38.5591 10.7817 37.9614 11.0879 37.1646 11.0879ZM37.0635 6.8252C36.7354 6.8252 36.46 6.94531 36.2373 7.18555C36.0146 7.42285 35.877 7.75684 35.8242 8.1875H38.2061V8.12598C38.1826 7.71289 38.0713 7.39355 37.8721 7.16797C37.6729 6.93945 37.4033 6.8252 37.0635 6.8252ZM42.271 11V6.24512H44.1255C44.7583 6.24512 45.2432 6.35645 45.5801 6.5791C45.9199 6.79883 46.0898 7.12256 46.0898 7.55029C46.0898 7.77002 46.0239 7.96924 45.8921 8.14795C45.7603 8.32373 45.5654 8.4585 45.3076 8.55225C45.5947 8.61963 45.8247 8.75146 45.9976 8.94775C46.1733 9.14404 46.2612 9.37842 46.2612 9.65088C46.2612 10.0874 46.1001 10.4214 45.7778 10.6528C45.4585 10.8843 45.0059 11 44.4199 11H42.271ZM43.084 8.9126V10.3452H44.4287C44.7686 10.3452 45.022 10.2822 45.189 10.1562C45.3589 10.0303 45.4438 9.85303 45.4438 9.62451C45.4438 9.1499 45.0952 8.9126 44.3979 8.9126H43.084ZM43.084 8.26221H44.1343C44.896 8.26221 45.2769 8.03955 45.2769 7.59424C45.2769 7.14893 44.9165 6.91895 44.1958 6.9043H43.084V8.26221Z" transform="translate(43 6)" fill="white"/>
<path d="M7.51172 10.9219C7.19531 11.3008 6.74805 11.5957 6.16992 11.8066C5.5918 12.0137 4.95117 12.1172 4.24805 12.1172C3.50977 12.1172 2.86133 11.957 2.30273 11.6367C1.74805 11.3125 1.31836 10.8438 1.01367 10.2305C0.712891 9.61719 0.558594 8.89648 0.550781 8.06836V7.48828C0.550781 6.63672 0.693359 5.90039 0.978516 5.2793C1.26758 4.6543 1.68164 4.17773 2.2207 3.84961C2.76367 3.51758 3.39844 3.35156 4.125 3.35156C5.13672 3.35156 5.92773 3.59375 6.49805 4.07812C7.06836 4.55859 7.40625 5.25977 7.51172 6.18164H5.80078C5.72266 5.69336 5.54883 5.33594 5.2793 5.10938C5.01367 4.88281 4.64648 4.76953 4.17773 4.76953C3.58008 4.76953 3.125 4.99414 2.8125 5.44336C2.5 5.89258 2.3418 6.56055 2.33789 7.44727V7.99219C2.33789 8.88672 2.50781 9.5625 2.84766 10.0195C3.1875 10.4766 3.68555 10.7051 4.3418 10.7051C5.00195 10.7051 5.47266 10.5645 5.75391 10.2832V8.8125H4.1543V7.51758H7.51172V10.9219ZM8.56641 8.77148C8.56641 8.14258 8.6875 7.58203 8.92969 7.08984C9.17187 6.59766 9.51953 6.2168 9.97266 5.94727C10.4297 5.67773 10.959 5.54297 11.5605 5.54297C12.416 5.54297 13.1133 5.80469 13.6523 6.32812C14.1953 6.85156 14.498 7.5625 14.5605 8.46094L14.5723 8.89453C14.5723 9.86719 14.3008 10.6484 13.7578 11.2383C13.2148 11.8242 12.4863 12.1172 11.5723 12.1172C10.6582 12.1172 9.92773 11.8242 9.38086 11.2383C8.83789 10.6523 8.56641 9.85547 8.56641 8.84766V8.77148ZM10.2598 8.89453C10.2598 9.49609 10.373 9.95703 10.5996 10.2773C10.8262 10.5938 11.1504 10.752 11.5723 10.752C11.9824 10.752 12.3027 10.5957 12.5332 10.2832C12.7637 9.9668 12.8789 9.46289 12.8789 8.77148C12.8789 8.18164 12.7637 7.72461 12.5332 7.40039C12.3027 7.07617 11.9785 6.91406 11.5605 6.91406C11.1465 6.91406 10.8262 7.07617 10.5996 7.40039C10.373 7.7207 10.2598 8.21875 10.2598 8.89453ZM15.3516 8.77148C15.3516 8.14258 15.4727 7.58203 15.7148 7.08984C15.957 6.59766 16.3047 6.2168 16.7578 5.94727C17.2148 5.67773 17.7441 5.54297 18.3457 5.54297C19.2012 5.54297 19.8984 5.80469 20.4375 6.32812C20.9805 6.85156 21.2832 7.5625 21.3457 8.46094L21.3574 8.89453C21.3574 9.86719 21.0859 10.6484 20.543 11.2383C20 11.8242 19.2715 12.1172 18.3574 12.1172C17.4434 12.1172 16.7129 11.8242 16.166 11.2383C15.623 10.6523 15.3516 9.85547 15.3516 8.84766V8.77148ZM17.0449 8.89453C17.0449 9.49609 17.1582 9.95703 17.3848 10.2773C17.6113 10.5938 17.9355 10.752 18.3574 10.752C18.7676 10.752 19.0879 10.5957 19.3184 10.2832C19.5488 9.9668 19.6641 9.46289 19.6641 8.77148C19.6641 8.18164 19.5488 7.72461 19.3184 7.40039C19.0879 7.07617 18.7637 6.91406 18.3457 6.91406C17.9316 6.91406 17.6113 7.07617 17.3848 7.40039C17.1582 7.7207 17.0449 8.21875 17.0449 8.89453ZM22.1543 8.7832C22.1543 7.81055 22.3848 7.02734 22.8457 6.43359C23.3105 5.83984 23.9355 5.54297 24.7207 5.54297C25.416 5.54297 25.957 5.78125 26.3438 6.25781L26.4141 5.66016H27.9492V11.7891C27.9492 12.3438 27.8223 12.8262 27.5684 13.2363C27.3184 13.6465 26.9648 13.959 26.5078 14.1738C26.0508 14.3887 25.5156 14.4961 24.9023 14.4961C24.4375 14.4961 23.9844 14.4023 23.543 14.2148C23.1016 14.0312 22.7676 13.793 22.541 13.5L23.291 12.4688C23.7129 12.9414 24.2246 13.1777 24.8262 13.1777C25.2754 13.1777 25.625 13.0566 25.875 12.8145C26.125 12.5762 26.25 12.2363 26.25 11.7949V11.4551C25.8594 11.8965 25.3457 12.1172 24.709 12.1172C23.9473 12.1172 23.3301 11.8203 22.8574 11.2266C22.3887 10.6289 22.1543 9.83789 22.1543 8.85352V8.7832ZM23.8477 8.90625C23.8477 9.48047 23.9629 9.93164 24.1934 10.2598C24.4238 10.584 24.7402 10.7461 25.1426 10.7461C25.6582 10.7461 26.0273 10.5527 26.25 10.166V7.5C26.0234 7.11328 25.6582 6.91992 25.1543 6.91992C24.748 6.91992 24.4277 7.08594 24.1934 7.41797C23.9629 7.75 23.8477 8.24609 23.8477 8.90625ZM31.043 12H29.3438V3H31.043V12ZM35.3613 12.1172C34.4316 12.1172 33.6738 11.832 33.0879 11.2617C32.5059 10.6914 32.2148 9.93164 32.2148 8.98242V8.81836C32.2148 8.18164 32.3379 7.61328 32.584 7.11328C32.8301 6.60938 33.1777 6.22266 33.627 5.95312C34.0801 5.67969 34.5957 5.54297 35.1738 5.54297C36.041 5.54297 36.7227 5.81641 37.2188 6.36328C37.7187 6.91016 37.9688 7.68555 37.9688 8.68945V9.38086H33.9316C33.9863 9.79492 34.1504 10.127 34.4238 10.377C34.7012 10.627 35.0508 10.752 35.4727 10.752C36.125 10.752 36.6348 10.5156 37.002 10.043L37.834 10.9746C37.5801 11.334 37.2363 11.6152 36.8027 11.8184C36.3691 12.0176 35.8887 12.1172 35.3613 12.1172ZM35.168 6.91406C34.832 6.91406 34.5586 7.02734 34.3477 7.25391C34.1406 7.48047 34.0078 7.80469 33.9492 8.22656H36.3047V8.0918C36.2969 7.7168 36.1953 7.42773 36 7.22461C35.8047 7.01758 35.5273 6.91406 35.168 6.91406ZM43.793 8.99414V12H42.0352V3.46875H45.3633C46.0039 3.46875 46.5664 3.58594 47.0508 3.82031C47.5391 4.05469 47.9141 4.38867 48.1758 4.82227C48.4375 5.25195 48.5684 5.74219 48.5684 6.29297C48.5684 7.12891 48.2812 7.78906 47.707 8.27344C47.1367 8.75391 46.3457 8.99414 45.334 8.99414H43.793ZM43.793 7.57031H45.3633C45.8281 7.57031 46.1816 7.46094 46.4238 7.24219C46.6699 7.02344 46.793 6.71094 46.793 6.30469C46.793 5.88672 46.6699 5.54883 46.4238 5.29102C46.1777 5.0332 45.8379 4.90039 45.4043 4.89258H43.793V7.57031ZM51.457 12H49.7578V3H51.457V12ZM56.5312 12C56.4531 11.8477 56.3965 11.6582 56.3613 11.4316C55.9512 11.8887 55.418 12.1172 54.7617 12.1172C54.1406 12.1172 53.625 11.9375 53.2148 11.5781C52.8086 11.2188 52.6055 10.7656 52.6055 10.2188C52.6055 9.54688 52.8535 9.03125 53.3496 8.67188C53.8496 8.3125 54.5703 8.13086 55.5117 8.12695H56.291V7.76367C56.291 7.4707 56.2148 7.23633 56.0625 7.06055C55.9141 6.88477 55.6777 6.79688 55.3535 6.79688C55.0684 6.79688 54.8438 6.86523 54.6797 7.00195C54.5195 7.13867 54.4395 7.32617 54.4395 7.56445H52.7461C52.7461 7.19727 52.8594 6.85742 53.0859 6.54492C53.3125 6.23242 53.6328 5.98828 54.0469 5.8125C54.4609 5.63281 54.9258 5.54297 55.4414 5.54297C56.2227 5.54297 56.8418 5.74023 57.2988 6.13477C57.7598 6.52539 57.9902 7.07617 57.9902 7.78711V10.5352C57.9941 11.1367 58.0781 11.5918 58.2422 11.9004V12H56.5312ZM55.1309 10.8223C55.3809 10.8223 55.6113 10.7676 55.8223 10.6582C56.0332 10.5449 56.1895 10.3945 56.291 10.207V9.11719H55.6582C54.8105 9.11719 54.3594 9.41016 54.3047 9.99609L54.2988 10.0957C54.2988 10.3066 54.373 10.4805 54.5215 10.6172C54.6699 10.7539 54.873 10.8223 55.1309 10.8223ZM61.5645 9.60352L62.7363 5.66016H64.5527L62.0039 12.9844L61.8633 13.3184C61.4844 14.1465 60.8594 14.5605 59.9883 14.5605C59.7422 14.5605 59.4922 14.5234 59.2383 14.4492V13.166L59.4961 13.1719C59.8164 13.1719 60.0547 13.123 60.2109 13.0254C60.3711 12.9277 60.4961 12.7656 60.5859 12.5391L60.7852 12.0176L58.5645 5.66016H60.3867L61.5645 9.60352Z" transform="translate(43 21)" fill="white"/>
</svg>
